<?xml version="1.0" encoding="utf-8"?>
<!-- Generator: Adobe Illustrator 16.0.0, SVG Export Plug-In . SVG Version: 6.00 Build 0)  -->
<!DOCTYPE svg PUBLIC "-//W3C//DTD SVG 1.1//EN" "http://www.w3.org/Graphics/SVG/1.1/DTD/svg11.dtd">
<svg version="1.1" id="Layer_1" xmlns="http://www.w3.org/2000/svg" xmlns:xlink="http://www.w3.org/1999/xlink" x="0px" y="0px"
	 width="308.423px" height="244.15px" viewBox="273.698 170.191 308.423 244.15"
	 enable-background="new 273.698 170.191 308.423 244.15" xml:space="preserve">
<path fill="#FFFFFF" d="M273.698,275.474c0.354-3.465,0.707-6.929,1.132-10.323c2.475-20.01,9.263-38.464,20.222-55.434
	c9.899-15.343,22.414-28.071,37.404-38.394c0.354-0.283,0.777-0.495,1.414-0.848c3.889,5.869,7.707,11.667,11.525,17.464
	c-32.384,23.333-50.344,54.515-50.272,94.747c0.07,40.232,18.242,71.343,50.979,94.677c-3.748,5.656-7.495,11.453-11.525,17.535
	c-1.697-1.133-3.252-2.193-4.808-3.324c-28.425-20.857-46.313-48.434-53.455-82.939c-1.131-5.656-1.484-11.454-2.263-17.11
	c-0.07-0.707-0.212-1.414-0.354-2.192C273.698,284.595,273.698,279.999,273.698,275.474z"/>
<path fill="#FFFFFF" d="M582.12,290.393c-0.354,3.252-0.707,6.505-1.131,9.757c-2.546,19.373-9.051,37.334-19.515,53.809
	c-9.97,15.768-22.697,28.848-38.111,39.383c-0.565,0.424-1.202,0.777-1.98,1.273c-3.889-5.939-7.707-11.809-11.524-17.535
	c32.737-23.121,50.838-54.303,50.979-94.465c0.142-40.09-17.748-71.343-50.272-94.676c3.535-5.374,7-10.747,10.535-16.121
	c0.283-0.424,0.637-0.849,1.202-1.626c5.091,4.101,10.323,7.848,15.131,12.161c21.99,19.869,36.061,44.404,42.07,73.464
	c1.132,5.374,1.485,10.889,2.192,16.333c0.07,0.707,0.283,1.414,0.354,2.121C582.12,279.646,582.12,285.019,582.12,290.393z"/>
<path fill="#FFFFFF" d="M365.9,347.099c-2.333,3.535-4.667,7.07-7,10.678c-0.283,0.354-0.565,0.707-0.99,1.344
	c-26.515-18.809-41.222-43.98-41.363-76.576c-0.07-32.525,14.354-57.768,40.728-76.717c2.757,4.172,5.303,8.061,7.919,12.021
	c-22.061,15.979-34.293,37.262-34.222,64.697C331.112,310.121,343.556,331.261,365.9,347.099z"/>
<path fill="#FFFFFF" d="M490.838,217.989c2.616-3.959,5.162-7.919,7.919-12.091c26.162,18.879,40.586,44.05,40.586,76.363
	c0,32.666-14.707,57.98-41.293,76.787c-2.687-4.172-5.303-8.061-7.919-12.09c22.202-15.697,34.646-36.838,34.788-64.202
	C525.131,255.463,513.04,234.181,490.838,217.989z"/>
<path fill="#FFFFFF" d="M382.162,322.423c-1.626,2.404-3.182,4.807-4.879,7.354c-15.272-10.465-24.111-24.678-25.667-43.061
	c-2.121-25.242,12.444-43.768,25.102-51.404c1.556,2.404,3.11,4.737,4.737,7.142C353.102,261.686,353.243,303.261,382.162,322.423z"
	/>
<path fill="#FFFFFF" d="M474.647,242.736c1.626-2.475,3.11-4.808,4.878-7.424c15.909,11.384,24.536,26.657,24.96,46.171
	c0.495,20.717-10.818,38.959-25.808,48.081c-1.556-2.404-3.111-4.736-4.667-7.141C502.505,303.615,502.787,262.322,474.647,242.736z
	"/>
<polygon fill="#FFFFFF" points="402.809,359.828 452.515,359.828 452.515,356.15 455.838,356.15 455.838,353.181 452.02,353.181 
	452.02,349.22 435.333,349.22 435.333,342.433 421.616,342.433 421.616,349.08 403.374,349.08 403.374,352.544 400.121,352.544 
	400.121,355.867 403.374,355.867 403.374,359.828 "/>
<path fill="#FFFFFF" d="M463.192,270.736h-8.626l0.212-3.748h3.535v-28.212c0,0-2.191-22.909-27.363-22.909
	c-0.212,0-0.424,0-0.637,0c-0.282,0-0.494,0-0.777,0c-29.979,0-32.596,22.909-32.596,22.909v28.212h4.242l0.283,3.748h-10.182
	c0,0-7.071,1.343-7.071,9.263c0,7.919,5.162,9.262,5.162,9.262h7.07v30.758c0,0,5.939,17.748,32.808,19.02v0.143
	c0.425,0,0.778-0.072,1.202-0.072c0.495,0,0.92,0.072,1.414,0.072v-0.143c22.202-1.484,27.081-19.02,27.081-19.02v-30.758h5.939
	c0,0,4.313-1.343,4.313-9.262C469.202,272.009,463.192,270.736,463.192,270.736z M408.535,242.736h-5.515
	c0,0-0.425-20.505,17.889-20.929l5.515,3.111C426.424,224.848,408.535,226.403,408.535,242.736z"/>
<g>
	<path fill="#FFFFFF" d="M384.142,413.705v-45.959h9.616v38.324h14.354v7.635H384.142z"/>
	<path fill="#FFFFFF" d="M413.414,390.726c0-12.162,0-23.758,15.838-23.758c9.829,0,13.718,5.443,13.364,15.273h-9.404
		c0-6.082-1.061-8.416-3.96-8.416c-5.373,0-6.08,5.092-6.08,16.83c0,11.736,0.707,16.828,6.08,16.828
		c4.455,0,4.243-5.729,4.384-9.334h9.476c0,12.303-4.879,16.191-13.859,16.191C413.414,414.412,413.414,402.746,413.414,390.726z"/>
	<path fill="#FFFFFF" d="M460.293,413.705h-9.616v-45.959h17.747c6.576,0,10.747,4.172,10.747,12.02
		c0,5.869-2.262,10.254-8.555,11.244v0.141c2.121,0.283,8.343,0.777,8.343,9.051c0,2.898,0.212,11.596,1.061,13.504h-9.403
		c-1.273-2.828-0.99-5.939-0.99-8.908c0-5.445,0.495-10.111-6.858-10.111h-2.475V413.705z M460.293,387.615h4.242
		c3.818,0,4.879-3.818,4.879-6.717c0-4.385-1.839-6.01-4.879-6.01h-4.242V387.615z"/>
</g>
</svg>
